<svg width="199" height="268" viewBox="0 0 199 268" fill="none" xmlns="http://www.w3.org/2000/svg">
<g id="Idle">
<g id="Group 10">
<g id="Group 5">
<path id="Vector 5" d="M193.338 216.85C210 197 172.823 171.938 157.03 158C159.687 167.679 162.352 202.138 161.024 216.85C174.13 227.691 189.355 221.597 193.338 216.85Z" fill="url(#paint0_linear_2190_2)"/>
<path id="Vector 6" d="M7.20437 216.85C-9.45732 197 27.7198 171.938 43.5123 158C40.8556 167.679 38.1903 202.138 39.5187 216.85C26.4124 227.691 11.1881 221.597 7.20437 216.85Z" fill="url(#paint1_linear_2190_2)"/>
<g id="Group 3">
<path id="Union" d="M154.986 151C159.273 166.522 163.452 229.012 154.986 244.576C146.52 260.14 118.203 260.985 108.002 244.576C97.8022 228.167 99.5501 228.61 99.5501 228.61L99.3543 228.54L99.1586 228.61C99.1586 228.61 100.907 228.167 90.7063 244.576C80.5061 260.985 52.1884 260.14 43.7226 244.576C35.2569 229.012 39.4356 166.522 43.7226 151H99.5501H154.986Z" fill="white"/>
<path id="Union_2" d="M154.986 151C159.273 166.522 163.452 240.099 154.986 255.663C146.52 271.228 118.203 272.072 108.002 255.663C97.8022 239.254 99.5501 228.61 99.5501 228.61L99.3543 228.54L99.1586 228.61C99.1586 228.61 100.907 239.254 90.7063 255.663C80.5061 272.072 52.1884 271.227 43.7226 255.663C35.2569 240.099 39.4356 166.522 43.7226 151H99.5501H154.986Z" fill="white"/>
<g id="Mask group">
<mask id="mask0_2190_2" style="mask-type:alpha" maskUnits="userSpaceOnUse" x="38" y="151" width="124" height="117">
<path id="Union_3" d="M156.977 151C161.368 166.568 165.647 240.362 156.977 255.972C148.306 271.583 119.304 272.43 108.857 255.972C98.4103 239.515 100.2 228.84 100.2 228.84L100 228.769L99.7995 228.84C99.7995 228.84 101.59 239.515 91.1429 255.972C80.696 272.43 51.6936 271.583 43.0231 255.972C34.3526 240.362 38.6324 166.568 43.0231 151H100.2H156.977Z" fill="white"/>
</mask>
<g mask="url(#mask0_2190_2)">
<path id="Subtract" d="M175.412 181.157C113.324 186.036 107.115 193.575 36.1572 181.157L42.8095 118.182H162.552L175.412 181.157Z" fill="url(#paint2_linear_2190_2)"/>
<g id="Subtract_2" filter="url(#filter0_i_2190_2)">
<path d="M38.5 181.562C103.782 192.807 113.172 186.683 166.5 181.906V213.374C111.276 230.26 92.7123 230.445 38.5 214.371V181.562Z" fill="white"/>
</g>
<path id="Vector 5_2" d="M170.313 212.201C109.644 231.005 92.4801 230.828 31.2788 212.201L37.4876 268.081H157.229L170.313 212.201Z" fill="url(#paint3_linear_2190_2)"/>
</g>
</g>
</g>
</g>
</g>
<g id="Group 11">
<g id="Group 1">
<g id="Right">
<ellipse id="Black" cx="164" cy="24.5" rx="25" ry="24.5" fill="url(#paint4_linear_2190_2)"/>
<ellipse id="Purple" cx="161.5" cy="27.5" rx="14.5" ry="13.5" fill="url(#paint5_linear_2190_2)"/>
</g>
<g id="Left ear">
<ellipse id="Black_2" cx="34" cy="24.5" rx="25" ry="24.5" fill="url(#paint6_linear_2190_2)"/>
<ellipse id="Purple_2" cx="35.5" cy="27.5" rx="14.5" ry="13.5" fill="url(#paint7_linear_2190_2)"/>
</g>
<g id="White head" filter="url(#filter1_i_2190_2)">
<path d="M0 104.34C0 52.699 41.8631 10.8359 93.5038 10.8359H105.496C157.137 10.8359 199 52.699 199 104.34V104.34C199 136.094 173.258 161.836 141.504 161.836H57.4962C25.7419 161.836 0 136.094 0 104.34V104.34Z" fill="url(#paint8_linear_2190_2)"/>
</g>
<path id="Mouth" d="M85 132 Q 99 122 113 132 Q 99 145 85 132 Z" fill="#FCA5A5" stroke="black" stroke-width="3" stroke-linejoin="round"/>
</g>
<g id="Right eye">
<ellipse id="Big black part" cx="139.883" cy="72.5738" rx="32.8861" ry="37.4729" transform="rotate(-33.7753 139.883 72.5738)" fill="url(#paint9_linear_2190_2)"/>
<ellipse id="White eye" cx="128.643" cy="67.1429" rx="21.2143" ry="20.4286" fill="white"/>
<g id="Eye">
<ellipse id="Ellipse 10" cx="122" cy="66.5" rx="11" ry="13.5" fill="black"/>
<ellipse id="Ellipse 12" cx="117.5" cy="60.5" rx="4.5" ry="5.5" fill="white"/>
</g>
</g>
<g id="Left eye">
<ellipse id="Big black part_2" cx="32.8861" cy="37.4729" rx="32.8861" ry="37.4729" transform="matrix(-0.831224 -0.555937 -0.555937 0.831224 107.908 58.1367)" fill="url(#paint10_linear_2190_2)"/>
<ellipse id="White eye_2" cx="21.2143" cy="20.4286" rx="21.2143" ry="20.4286" transform="matrix(-1 0 0 1 92.1938 45.1431)" fill="white"/>
<g id="Eye_2">
<ellipse id="Ellipse 11" cx="78" cy="66.5" rx="11" ry="13.5" fill="black"/>
<ellipse id="Ellipse 13" cx="73.5" cy="60.5" rx="4.5" ry="5.5" fill="white"/>
</g>

<!-- Polished Sad Eyebrows -->
<path id="Left eyebrow" d="M 55 56 Q 72 48 92 42 Q 74 50 55 56 Z" fill="url(#paint10_linear_2190_2)"/>
<path id="Right eyebrow" d="M 144 56 Q 127 48 107 42 Q 125 50 144 56 Z" fill="url(#paint9_linear_2190_2)"/>
<!-- Tears -->
<path d="M 78 70 Q 88 70, 88 100 Q 88 110, 78 110 Q 68 110, 68 100 Q 68 70, 78 70 Z" fill="#60A5FA" opacity="0.8"/>
<path d="M 122 70 Q 132 70, 132 100 Q 132 110, 122 110 Q 112 110, 112 100 Q 112 70, 122 70 Z" fill="#60A5FA" opacity="0.8"/>
<!-- Tear highlights -->
<ellipse cx="75" cy="100" rx="3" ry="5" fill="white" opacity="0.6"/>
<ellipse cx="119" cy="100" rx="3" ry="5" fill="white" opacity="0.6"/>

</g>
<path id="Nose" d="M114 107C114 111.971 103 116 99 116C94 116 84 111.971 84 107C84 102.029 85.875 98 99 98C112.125 98 114 102.029 114 107Z" fill="url(#paint11_linear_2190_2)"/>
</g>
</g>
<defs>
<filter id="filter0_i_2190_2" x="38.5" y="181.562" width="128" height="44.6741" filterUnits="userSpaceOnUse" color-interpolation-filters="sRGB">
<feFlood flood-opacity="0" result="BackgroundImageFix"/>
<feBlend mode="normal" in="SourceGraphic" in2="BackgroundImageFix" result="shape"/>
<feColorMatrix in="SourceAlpha" type="matrix" values="0 0 0 0 0 0 0 0 0 0 0 0 0 0 0 0 0 0 127 0" result="hardAlpha"/>
<feOffset/>
<feGaussianBlur stdDeviation="13.05"/>
<feComposite in2="hardAlpha" operator="arithmetic" k2="-1" k3="1"/>
<feColorMatrix type="matrix" values="0 0 0 0 0.753381 0 0 0 0 0.496154 0 0 0 0 1 0 0 0 0.67 0"/>
<feBlend mode="normal" in2="shape" result="effect1_innerShadow_2190_2"/>
</filter>
<filter id="filter1_i_2190_2" x="0" y="10.8359" width="199" height="156.971" filterUnits="userSpaceOnUse" color-interpolation-filters="sRGB">
<feFlood flood-opacity="0" result="BackgroundImageFix"/>
<feBlend mode="normal" in="SourceGraphic" in2="BackgroundImageFix" result="shape"/>
<feColorMatrix in="SourceAlpha" type="matrix" values="0 0 0 0 0 0 0 0 0 0 0 0 0 0 0 0 0 0 127 0" result="hardAlpha"/>
<feOffset dy="6.28571"/>
<feGaussianBlur stdDeviation="2.98571"/>
<feComposite in2="hardAlpha" operator="arithmetic" k2="-1" k3="1"/>
<feColorMatrix type="matrix" values="0 0 0 0 0.634178 0 0 0 0 0.254808 0 0 0 0 1 0 0 0 0.24 0"/>
<feBlend mode="normal" in2="shape" result="effect1_innerShadow_2190_2"/>
</filter>
<linearGradient id="paint0_linear_2190_2" x1="176.03" y1="158" x2="176.03" y2="223" gradientUnits="userSpaceOnUse">
<stop stop-color="#002F91"/>
<stop offset="1"/>
</linearGradient>
<linearGradient id="paint1_linear_2190_2" x1="24.5123" y1="158" x2="24.5123" y2="223" gradientUnits="userSpaceOnUse">
<stop stop-color="#002F91"/>
<stop offset="1"/>
</linearGradient>
<linearGradient id="paint2_linear_2190_2" x1="105.785" y1="161" x2="105.785" y2="187.927" gradientUnits="userSpaceOnUse">
<stop/>
<stop offset="1" stop-color="#002F91"/>
</linearGradient>
<linearGradient id="paint3_linear_2190_2" x1="100.796" y1="212.201" x2="100.796" y2="268.081" gradientUnits="userSpaceOnUse">
<stop/>
<stop offset="1" stop-color="#002F91"/>
</linearGradient>
<linearGradient id="paint4_linear_2190_2" x1="164" y1="0" x2="164" y2="49" gradientUnits="userSpaceOnUse">
<stop stop-color="#002F91"/>
<stop offset="1"/>
</linearGradient>
<linearGradient id="paint5_linear_2190_2" x1="161.5" y1="14" x2="161.5" y2="41" gradientUnits="userSpaceOnUse">
<stop stop-color="#A241FF"/>
<stop offset="1"/>
</linearGradient>
<linearGradient id="paint6_linear_2190_2" x1="34" y1="0" x2="34" y2="49" gradientUnits="userSpaceOnUse">
<stop stop-color="#002F91"/>
<stop offset="1"/>
</linearGradient>
<linearGradient id="paint7_linear_2190_2" x1="35.5" y1="14" x2="35.5" y2="41" gradientUnits="userSpaceOnUse">
<stop stop-color="#A241FF"/>
<stop offset="1"/>
</linearGradient>
<linearGradient id="paint8_linear_2190_2" x1="99.5" y1="10.8359" x2="99.5" y2="161.836" gradientUnits="userSpaceOnUse">
<stop offset="0.59903" stop-color="white"/>
<stop offset="1" stop-color="#EAD4FF"/>
</linearGradient>
<linearGradient id="paint9_linear_2190_2" x1="139.883" y1="35.1009" x2="139.883" y2="110.047" gradientUnits="userSpaceOnUse">
<stop stop-color="#002F91"/>
<stop offset="1"/>
</linearGradient>
<linearGradient id="paint10_linear_2190_2" x1="32.8861" y1="0" x2="32.8861" y2="74.9458" gradientUnits="userSpaceOnUse">
<stop stop-color="#002F91"/>
<stop offset="1"/>
</linearGradient>
<linearGradient id="paint11_linear_2190_2" x1="99" y1="98" x2="99" y2="116" gradientUnits="userSpaceOnUse">
<stop stop-color="#A241FF"/>
<stop offset="1"/>
</linearGradient>
</defs>
</svg>
