<svg width="222" height="268" viewBox="0 0 222 268" fill="none" xmlns="http://www.w3.org/2000/svg">
<g id="Suprise">
<g id="Group 22">
<g id="Group 10">
<g id="Group 5">
<g id="Group 3">
<path id="Union" d="M165.986 151C170.273 166.522 174.452 229.012 165.986 244.576C157.52 260.14 129.202 260.985 119.002 244.576C108.802 228.167 110.55 228.61 110.55 228.61L110.354 228.54L110.158 228.61C110.158 228.61 111.906 228.167 101.706 244.576C91.5059 260.985 63.1883 260.14 54.7225 244.576C46.2567 229.012 50.4354 166.522 54.7225 151H110.55H165.986Z" fill="white"/>
<path id="Union_2" d="M165.986 151C170.273 166.522 174.452 240.099 165.986 255.663C157.52 271.228 129.202 272.072 119.002 255.663C108.802 239.254 110.55 228.61 110.55 228.61L110.354 228.54L110.158 228.61C110.158 228.61 111.906 239.254 101.706 255.663C91.5059 272.072 63.1883 271.227 54.7225 255.663C46.2567 240.099 50.4354 166.522 54.7225 151H110.55H165.986Z" fill="white"/>
<g id="Mask group">
<mask id="mask0_2190_190" style="mask-type:alpha" maskUnits="userSpaceOnUse" x="48" y="151" width="125" height="117">
<path id="Union_3" d="M167.977 151C172.367 166.568 176.647 240.362 167.977 255.972C159.306 271.583 130.304 272.43 119.857 255.972C109.41 239.515 111.2 228.84 111.2 228.84L111 228.769L110.799 228.84C110.799 228.84 112.59 239.515 102.143 255.972C91.6958 272.43 62.6935 271.583 54.0229 255.972C45.3525 240.362 49.6323 166.568 54.0229 151H111.2H167.977Z" fill="white"/>
</mask>
<g mask="url(#mask0_2190_190)">
<path id="Subtract" d="M186.412 181.157C124.324 186.036 118.115 193.575 47.1571 181.157L53.8094 118.182H173.552L186.412 181.157Z" fill="url(#paint0_linear_2190_190)"/>
<g id="Subtract_2" filter="url(#filter0_i_2190_190)">
<path d="M49.4999 181.562C114.782 192.807 124.172 186.683 177.5 181.906V213.374C122.276 230.26 103.712 230.445 49.4999 214.371V181.562Z" fill="white"/>
</g>
<path id="Vector 5" d="M181.313 212.201C120.644 231.005 103.48 230.828 42.2787 212.201L48.4875 268.081H168.229L181.313 212.201Z" fill="url(#paint1_linear_2190_190)"/>
</g>
</g>
</g>
</g>
</g>
<g id="Group 11">
<g id="Group 1">
<g id="Right">
<ellipse id="Black" cx="175" cy="24.5" rx="25" ry="24.5" fill="url(#paint2_linear_2190_190)"/>
<ellipse id="Purple" cx="172.5" cy="27.5" rx="14.5" ry="13.5" fill="url(#paint3_linear_2190_190)"/>
</g>
<g id="Left ear">
<ellipse id="Black_2" cx="44.9999" cy="24.5" rx="25" ry="24.5" fill="url(#paint4_linear_2190_190)"/>
<ellipse id="Purple_2" cx="46.4999" cy="27.5" rx="14.5" ry="13.5" fill="url(#paint5_linear_2190_190)"/>
</g>
<g id="White head" filter="url(#filter1_i_2190_190)">
<path d="M10.9999 104.34C10.9999 52.699 52.863 10.8359 104.504 10.8359H116.496C168.137 10.8359 210 52.699 210 104.34V104.34C210 136.094 184.258 161.836 152.504 161.836H68.496C36.7418 161.836 10.9999 136.094 10.9999 104.34V104.34Z" fill="url(#paint6_linear_2190_190)"/>
</g>
</g>
<g id="Right eye">
<ellipse id="Big black part" cx="150.882" cy="72.574" rx="32.8861" ry="37.4729" transform="rotate(-33.7753 150.882 72.574)" fill="url(#paint7_linear_2190_190)"/>
<ellipse id="White eye" cx="139.643" cy="67.1429" rx="21.2143" ry="20.4286" fill="white"/>
<g id="Eye">
<ellipse id="Ellipse 10" cx="135.5" cy="66.5002" rx="13.5" ry="16.5" fill="black"/>
<ellipse id="Ellipse 12" cx="128.5" cy="60.5002" rx="4.5" ry="5.5" fill="white"/>
</g>
</g>
<g id="Left eye">
<ellipse id="Big black part_2" cx="32.8861" cy="37.4729" rx="32.8861" ry="37.4729" transform="matrix(-0.831224 -0.555937 -0.555937 0.831224 118.908 58.1367)" fill="url(#paint8_linear_2190_190)"/>
<ellipse id="White eye_2" cx="21.2143" cy="20.4286" rx="21.2143" ry="20.4286" transform="matrix(-1 0 0 1 103.194 45.1428)" fill="white"/>
<ellipse id="Ellipse 13" cx="86.4999" cy="66.5" rx="13.5" ry="16.5" fill="black"/>
<g id="Eye_2">
<ellipse id="Ellipse 13_2" cx="82.4999" cy="60.5" rx="4.5" ry="5.5" fill="white"/>
</g>
<g id="Eye_3">
<ellipse id="Ellipse 13_3" cx="90.9999" cy="65.8889" rx="4" ry="4.88889" fill="white"/>
</g>
<g id="Eye_4">
<ellipse id="Ellipse 13_4" cx="137" cy="65.8889" rx="4" ry="4.88889" fill="white"/>
</g>
</g>
<path id="Nose" d="M125 107C125 111.971 114 116 110 116C105 116 94.9999 111.971 94.9999 107C94.9999 102.029 96.8749 98 110 98C123.125 98 125 102.029 125 107Z" fill="url(#paint9_linear_2190_190)"/>
</g>
</g>
<circle id="Ellipse 140" cx="109.5" cy="134.5" r="14.5" fill="black"/>
<path id="Vector 8" d="M119.5 140.092C110.3 134.492 101.333 137.759 97.9998 140.092L99.4998 144.092L106.5 147.092H117L119.5 140.092Z" fill="#DD5555"/>
<path id="Vector 9" d="M158.926 179.4C182.799 200.827 222 141.725 222 118.577C208.17 101.859 211.694 104.708 194 103C177.163 108.787 153.218 174.277 158.926 179.4Z" fill="url(#paint10_linear_2190_190)"/>
<path id="Vector 10" d="M63.0743 184.4C39.2012 205.827 1.84789e-06 146.725 2.85973e-06 123.577C13.8305 106.859 11.8059 108.208 29.5 106.5C46.3371 112.287 68.7823 179.277 63.0743 184.4Z" fill="url(#paint11_linear_2190_190)"/>
<circle id="Ellipse 139" cx="109.5" cy="134.5" r="12.5" stroke="black" stroke-width="4"/>
</g>
<defs>
<filter id="filter0_i_2190_190" x="49.4999" y="181.562" width="128" height="44.6741" filterUnits="userSpaceOnUse" color-interpolation-filters="sRGB">
<feFlood flood-opacity="0" result="BackgroundImageFix"/>
<feBlend mode="normal" in="SourceGraphic" in2="BackgroundImageFix" result="shape"/>
<feColorMatrix in="SourceAlpha" type="matrix" values="0 0 0 0 0 0 0 0 0 0 0 0 0 0 0 0 0 0 127 0" result="hardAlpha"/>
<feOffset/>
<feGaussianBlur stdDeviation="13.05"/>
<feComposite in2="hardAlpha" operator="arithmetic" k2="-1" k3="1"/>
<feColorMatrix type="matrix" values="0 0 0 0 0.753381 0 0 0 0 0.496154 0 0 0 0 1 0 0 0 0.67 0"/>
<feBlend mode="normal" in2="shape" result="effect1_innerShadow_2190_190"/>
</filter>
<filter id="filter1_i_2190_190" x="10.9999" y="10.8359" width="199" height="156.971" filterUnits="userSpaceOnUse" color-interpolation-filters="sRGB">
<feFlood flood-opacity="0" result="BackgroundImageFix"/>
<feBlend mode="normal" in="SourceGraphic" in2="BackgroundImageFix" result="shape"/>
<feColorMatrix in="SourceAlpha" type="matrix" values="0 0 0 0 0 0 0 0 0 0 0 0 0 0 0 0 0 0 127 0" result="hardAlpha"/>
<feOffset dy="6.28571"/>
<feGaussianBlur stdDeviation="2.98571"/>
<feComposite in2="hardAlpha" operator="arithmetic" k2="-1" k3="1"/>
<feColorMatrix type="matrix" values="0 0 0 0 0.634178 0 0 0 0 0.254808 0 0 0 0 1 0 0 0 0.24 0"/>
<feBlend mode="normal" in2="shape" result="effect1_innerShadow_2190_190"/>
</filter>
<linearGradient id="paint0_linear_2190_190" x1="116.785" y1="161" x2="116.785" y2="187.927" gradientUnits="userSpaceOnUse">
<stop/>
<stop offset="1" stop-color="#002F91"/>
</linearGradient>
<linearGradient id="paint1_linear_2190_190" x1="111.796" y1="212.201" x2="111.796" y2="268.081" gradientUnits="userSpaceOnUse">
<stop/>
<stop offset="1" stop-color="#002F91"/>
</linearGradient>
<linearGradient id="paint2_linear_2190_190" x1="175" y1="0" x2="175" y2="49" gradientUnits="userSpaceOnUse">
<stop stop-color="#002F91"/>
<stop offset="1"/>
</linearGradient>
<linearGradient id="paint3_linear_2190_190" x1="172.5" y1="14" x2="172.5" y2="41" gradientUnits="userSpaceOnUse">
<stop stop-color="#A241FF"/>
<stop offset="1"/>
</linearGradient>
<linearGradient id="paint4_linear_2190_190" x1="44.9999" y1="0" x2="44.9999" y2="49" gradientUnits="userSpaceOnUse">
<stop stop-color="#002F91"/>
<stop offset="1"/>
</linearGradient>
<linearGradient id="paint5_linear_2190_190" x1="46.4999" y1="14" x2="46.4999" y2="41" gradientUnits="userSpaceOnUse">
<stop stop-color="#A241FF"/>
<stop offset="1"/>
</linearGradient>
<linearGradient id="paint6_linear_2190_190" x1="110.5" y1="10.8359" x2="110.5" y2="161.836" gradientUnits="userSpaceOnUse">
<stop offset="0.59903" stop-color="white"/>
<stop offset="1" stop-color="#EAD4FF"/>
</linearGradient>
<linearGradient id="paint7_linear_2190_190" x1="150.882" y1="35.1011" x2="150.882" y2="110.047" gradientUnits="userSpaceOnUse">
<stop stop-color="#002F91"/>
<stop offset="1"/>
</linearGradient>
<linearGradient id="paint8_linear_2190_190" x1="32.8861" y1="0" x2="32.8861" y2="74.9458" gradientUnits="userSpaceOnUse">
<stop stop-color="#002F91"/>
<stop offset="1"/>
</linearGradient>
<linearGradient id="paint9_linear_2190_190" x1="110" y1="98" x2="110" y2="116" gradientUnits="userSpaceOnUse">
<stop stop-color="#A241FF"/>
<stop offset="1"/>
</linearGradient>
<linearGradient id="paint10_linear_2190_190" x1="229.702" y1="157.142" x2="151.53" y2="157.142" gradientUnits="userSpaceOnUse">
<stop stop-color="#002F91"/>
<stop offset="1"/>
</linearGradient>
<linearGradient id="paint11_linear_2190_190" x1="-7.70214" y1="162.142" x2="70.4702" y2="162.142" gradientUnits="userSpaceOnUse">
<stop stop-color="#002F91"/>
<stop offset="1"/>
</linearGradient>
</defs>
</svg>
